Coordinates
version=1
nRows=8
nColumns=33
inDegrees=yes

Units are S.I. units (second, meters, Newtons, ...)
Angles are in degrees.

endheader
time	ground_thorax_rot_x	ground_thorax_rot_y	ground_thorax_rot_z	ground_thorax_tx	ground_thorax_ty	ground_thorax_tz	clav_prot_r	clav_elev_r	scapula_abduction_r	scapula_elevation_r	scapula_upward_rot_r	scapula_winging_r	shoulder_elv_r	plane_of_elev_r	axial_rot_r	elbow_flexion_r	pro_sup_r	wrist_flex_r	wrist_dev_r	clav_prot_l	clav_elev_l	scapula_abduction_l	scapula_elevation_l	scapula_upward_rot_l	scapula_winging_l	shoulder_elv_l	plane_of_elev_l	axial_rot_l	elbow_flexion_l	pro_sup_l	wrist_flex_l	wrist_dev_l
      2.85000000	     38.56903881	      2.67369795	      8.14648119	    -85.52835593	    799.50916462	     -5.05742699	     -1.90801029	     39.64057825	     45.00000000	     39.13390006	     26.50016854	  -2993.82100730	  -2819.11639533	     16.75544874	   -179.99999979	    724.42119216	    294.71507159	     16.57311161	      9.91950274	     12.01531192	    -45.00000000	    -45.00000000	     45.00000000	    -35.10623348	   2247.30244333	  -3697.29658298	    136.99631424	   -179.99999979	    365.17140884	     32.42323826	     11.80200342	    -20.65804539
      2.86000000	     38.63051575	      2.85051295	      8.43104227	    -91.76661782	    799.59266169	     -5.73510034	     -1.62322084	     39.85049058	     45.00000000	     39.33006451	     25.45546988	  -2994.01326418	  -2818.98283937	     16.75426179	   -179.99999979	    724.44830467	    297.01405936	     16.75261660	      9.83634269	     12.43406269	    -45.00000000	    -45.00000000	     45.00000000	    -36.44863804	   2247.70285775	  -3697.36455413	    137.03126368	   -179.99999979	    365.25052484	     32.85591436	     11.89637570	    -20.85411926
      2.87000000	     38.81471424	      3.00981902	      8.47828325	    -97.99074690	    799.76894928	     -6.39040839	     -2.18118533	     40.14608862	     45.00000000	     39.78692740	     26.47458851	  -2994.90460120	  -2818.24630887	     16.57121826	   -179.99999979	    724.76322027	    298.75510796	     16.66509182	      9.95277281	     12.88202297	    -45.00000000	    -45.00000000	     45.00000000	    -37.73062165	   2248.00248565	  -3697.50330628	    136.95630108	   -179.99999979	    365.30813961	     33.67534345	     11.74693808	    -20.92070955
      2.88000000	     38.94149560	      3.59011838	      9.81526090	   -104.19685682	    800.09662808	     -7.02814490	     -0.86269734	     40.47796201	     45.00000000	     39.98069474	     22.30470124	  -2994.03446037	  -2818.91839421	     16.69698846	   -179.99999979	    724.43919045	    301.76564724	     17.13612367	      9.55380322	     13.05818549	    -45.00000000	    -43.37803764	     45.00000000	    -41.11583934	   2247.90495043	  -3697.13389011	    136.90338837	   -179.99999979	    365.37199610	     34.05581846	     12.12256796	    -21.36942387
      2.89000000	     39.03863755	      4.01583226	     10.96454299	   -110.37022475	    800.61279524	     -7.65247213	     -0.10556486	     41.18871242	     45.00000000	     40.24814157	     20.02525809	  -2993.72449552	  -2819.01756419	     16.73286961	   -179.99999979	    724.49191958	    303.89725152	     17.46552536	      9.31721170	     12.27540497	    -45.00000000	    -41.80070114	     45.00000000	    -44.10440503	   2248.05669860	  -3696.86815407	    136.78455527	   -179.99999979	    365.49914827	     34.67485580	     12.13606990	    -21.51890344
      2.90000000	     39.16236770	      3.95983984	     10.70394977	   -116.49525424	    801.33654827	     -8.26284027	     -0.76710656	     41.33021859	     45.00000000	     40.58538863	     21.37759155	  -2994.58545866	  -2818.29168152	     16.45723973	   -179.99999979	    724.69376634	    304.76419820	     17.32642695	      9.46813272	     13.04625081	    -45.00000000	    -41.83958448	     45.00000000	    -45.00000000	   2248.34765840	  -3696.88847342	    136.82189807	   -179.99999979	    365.85443779	     35.75951828	     11.94942401	    -21.68739292
      2.91000000	     39.19107947	      3.75593690	     10.92356856	   -122.54375698	    802.27025670	     -8.85222281	      0.31224647	     41.36452968	     45.00000000	     40.53011008	     18.55434873	  -2993.88714815	  -2818.88836362	     16.78994919	   -179.99999979	    724.64468344	    306.56072561	     17.84287112	      9.08224875	     12.16403590	    -45.00000000	    -40.88284482	     45.00000000	    -45.00000000	   2248.47595194	  -3697.17127958	    137.27568554	   -179.99999979	    365.52859472	     36.65558036	     12.25835683	    -21.90472904
      2.92000000	     39.27423655	      3.48451013	     10.64765504	   -128.47994003	    803.39943122	     -9.41056658	      0.61155759	     41.57199535	     45.00000000	     40.66302668	     17.92900842	  -2993.96345136	  -2818.92465431	     16.81830839	   -179.99999979	    724.66424906	    308.07118099	     18.04359702	      8.90491842	     12.38899957	    -45.00000000	    -40.71583116	     45.00000000	    -45.00000000	   2248.78000545	  -3697.40000338	    137.50425581	   -179.99999979	    365.61736168	     37.82485461	     12.38036705	    -22.18494287
